<?xml version="1.0" encoding="UTF-8"?>
<svg width="25px" height="24px" viewBox="0 0 25 24" version="1.1" xmlns="http://www.w3.org/2000/svg" xmlns:xlink="http://www.w3.org/1999/xlink">
    <!-- Generator: sketchtool 63 (101010) - https://sketch.com -->
    <title>31A4132B-FE0B-4E5A-934D-6FB4E73B5CCC</title>
    <desc>Created with sketchtool.</desc>
    <g id="Ad-hoc-Needs" stroke="none" stroke-width="1" fill="none" fill-rule="evenodd">
        <g id="141e_Admin---Create-MDO-(Spot-List)" transform="translate(-928.000000, -674.000000)">
            <rect fill="#FAFAFA" x="0" y="0" width="1366" height="1024"></rect>
            <g id="Data-Table" transform="translate(30.000000, 612.000000)">
                <rect id="Rectangle" stroke="#F2F2F2" fill="#FFFFFF" x="0.5" y="0.5" width="1304" height="821" rx="8"></rect>
                <g id="Table-Header" transform="translate(17.000000, 25.000000)" stroke="#EAEAEA" stroke-dasharray="2,4" stroke-linecap="square">
                    <g id="Dividers/Horizontal-Light-Copy-6" transform="translate(1.000000, 41.510154)">
                        <line x1="0.938262464" y1="0.700416667" x2="1272.43844" y2="0.700416667" id="Line-3"></line>
                    </g>
                </g>
                <g id="fse-user-row-copy-9" transform="translate(17.000000, 84.000000)">
                    <g id="Group">
                        <g id="Group-2" transform="translate(15.775555, 0.000000)"></g>
                    </g>
                </g>
            </g>
            <rect id="Rectangle" fill-opacity="0.56" fill="#252525" x="0" y="0" width="1366" height="1024"></rect>
            <g id="Popup" transform="translate(373.000000, 72.000000)">
                <rect id="Rectangle" fill="#FFFFFF" x="0" y="0" width="620" height="779" rx="8"></rect>
                <g id="Fields/BN/Outlined/Populated-Copy-8" transform="translate(25.000000, 580.000000)">
                    <g id="Group">
                        <g id="All">
                            <path d="M568,8.5 L4,8.5 C3.03350169,8.5 2.15850169,8.89175084 1.52512627,9.52512627 C0.891750844,10.1585017 0.5,11.0335017 0.5,12 L0.5,56 C0.5,56.9664983 0.891750844,57.8414983 1.52512627,58.4748737 C2.15850169,59.1082492 3.03350169,59.5 4,59.5 L568,59.5 C568.966498,59.5 569.841498,59.1082492 570.474874,58.4748737 C571.108249,57.8414983 571.5,56.9664983 571.5,56 L571.5,12 C571.5,11.0335017 571.108249,10.1585017 570.474874,9.52512627 C569.841498,8.89175084 568.966498,8.5 568,8.5 Z" id="Rectangle" stroke="#B7B7B7" fill="#FFFFFF"></path>
                            <g id="Text" transform="translate(15.902439, 22.000000)" fill="#808080" fill-rule="nonzero">
                                <g id="Icons/ic_eye" transform="translate(515.000000, 0.000000)">
                                    <polygon id="a" points="6.984375 9.984375 17.015625 9.984375 12 15"></polygon>
                                </g>
                            </g>
                        </g>
                    </g>
                </g>
            </g>
        </g>
    </g>
</svg>